PathFileType  4	(X/Y/Z) C:\Users\antoi\Documents\MyRepositories\mobilecap\ResultsAnalysis
DataRate	CameraRate	NumFrames	NumMarkers	Units	OrigDataRate	OrigDataStartFrame	OrigNumFrames
100.0	100.0	6	51	mm	100.0	169	1349
Frame#	Time	r_knee			r_shank_antsup			r_ankle			r_calc			r_5meta			r_toe			L_knee			L_shank_antsup			L_ankle			L_calc			L_5meta			L_toe			r_sh2			r_sh3			r_sh4			L_sh2			L_sh3			r_thigh1			r_thigh2			r_thigh3			r_thigh4			r_thigh5			L_thigh1			L_thigh2			L_thigh3			L_thigh4			r.ASIS			r.PSIS			L.ASIS			L.PSIS			C7			R_Shoulder			L_Shoulder			R_Sternum			L_Sternum			R_humerus			R_elbow_med			R_elbow_lat			R_forearm			R_wrist_radius			R_wrist_ulna			L_humerus			L_elbow_med			L_elbow_lat			L_forearm			L_wrist_radius			L_wrist_ulna			R_HJC			L_HJC			R_HJC_reg			L_HJC_reg			
		X1	Y1	Z1	X2	Y2	Z2	X3	Y3	Z3	X4	Y4	Z4	X5	Y5	Z5	X6	Y6	Z6	X7	Y7	Z7	X8	Y8	Z8	X9	Y9	Z9	X10	Y10	Z10	X11	Y11	Z11	X12	Y12	Z12	X13	Y13	Z13	X14	Y14	Z14	X15	Y15	Z15	X16	Y16	Z16	X17	Y17	Z17	X18	Y18	Z18	X19	Y19	Z19	X20	Y20	Z20	X21	Y21	Z21	X22	Y22	Z22	X23	Y23	Z23	X24	Y24	Z24	X25	Y25	Z25	X26	Y26	Z26	X27	Y27	Z27	X28	Y28	Z28	X29	Y29	Z29	X30	Y30	Z30	X31	Y31	Z31	X32	Y32	Z32	X33	Y33	Z33	X34	Y34	Z34	X35	Y35	Z35	X36	Y36	Z36	X37	Y37	Z37	X38	Y38	Z38	X39	Y39	Z39	X40	Y40	Z40	X41	Y41	Z41	X42	Y42	Z42	X43	Y43	Z43	X44	Y44	Z44	X45	Y45	Z45	X46	Y46	Z46	X47	Y47	Z47	X48	Y48	Z48	X49	Y49	Z49	X50	Y50	Z50	X51	Y51	Z51	

169	1.68000000	-149.70802	517.86733	-394.99363	-114.06142	389.28604	-401.47553	-289.54888	98.55506	-424.89344	-352.26756	63.45785	-476.64904	-166.64861	38.27540	-357.82186	-122.30644	66.42287	-424.18319	-164.05637	506.49475	-938.01221	-110.88641	397.68178	-931.15439	-286.70760	94.13870	-905.83315	-349.96502	68.09692	-849.04926	-153.45016	35.44306	-947.85165	-118.11309	63.25100	-882.53182	-143.74956	279.72051	-429.68447	-181.03922	395.84166	-362.79048	-203.78743	280.70744	-370.52050	-192.97408	419.95413	-962.62300	-207.66391	299.27890	-970.39954	-264.48334	740.38122	-461.15862	-174.20300	672.28520	-449.15748	-179.27798	639.57652	-389.67120	-320.91099	680.14762	-382.16156	-224.15775	609.06999	-375.61778	-311.33004	728.22743	-890.99767	-197.31396	656.50912	-919.89763	-374.12542	642.35905	-928.04543	-259.42463	567.77372	-949.18297	-350.52161	801.74497	-519.95099	-502.69126	915.41040	-614.08848	-348.47968	779.41719	-781.88411	-501.64612	910.37789	-711.83417	-168.50699	1266.99282	-655.41953	-86.29858	1182.79428	-476.61921	-71.96788	1189.32756	-812.31563	-57.59979	1139.68695	-628.07130	-61.80989	1136.29874	-669.19215	-19.39939	1065.03873	-403.66552	26.24675	832.20088	-431.66762	55.11699	879.16905	-355.07233	148.79253	983.96894	-445.99432	224.92800	1042.03701	-509.27128	259.48146	1017.47243	-507.59031	0.21096	1066.20690	-888.00062	32.50906	835.04999	-879.35116	79.00285	886.25676	-930.28699	136.81334	976.06046	-804.78067	211.81395	1029.04104	-738.69399	249.39890	1002.27423	-750.71039	-456.02400	765.20542	-552.50574	-456.94164	737.49100	-764.08800	-450.44856	759.21203	-556.19899	-448.59600	750.29234	-729.46704	
170	1.69000000	-151.02036	518.59736	-395.04898	-115.40199	389.95694	-401.40715	-289.79540	98.48029	-424.91454	-352.29808	63.43753	-476.66222	-166.75156	38.28945	-357.67545	-122.42656	66.64386	-423.97187	-164.61869	507.11503	-937.11984	-111.72565	398.14619	-930.32571	-286.75983	94.14692	-905.76394	-349.98321	68.03126	-849.12860	-153.46736	35.47085	-947.82772	-118.11905	63.30219	-882.54046	-144.64684	280.22094	-429.43578	-182.38434	396.37990	-362.81497	-205.10469	281.27597	-370.23100	-193.76642	420.25399	-961.78499	-208.23798	299.64837	-969.86409	-262.60415	742.95297	-460.13227	-173.40815	673.46911	-448.38801	-179.14849	640.45474	-389.11845	-320.25025	682.83323	-382.15847	-224.54009	610.40219	-375.63508	-309.00422	730.94665	-891.46794	-195.98163	657.27316	-919.38870	-372.94830	645.58967	-927.74100	-259.31992	569.28958	-948.37022	-349.03462	807.60896	-520.15413	-501.67640	921.45971	-613.95953	-347.10385	786.06421	-782.06179	-500.60541	916.64141	-711.64925	-170.71823	1275.99433	-654.91704	-88.21749	1192.02172	-476.01220	-73.96816	1199.33000	-812.17843	-58.82757	1149.78300	-627.79724	-63.00715	1146.38445	-668.77281	-21.38553	1073.71513	-403.18475	23.61481	840.48369	-431.44157	52.94169	887.63854	-355.04970	146.53006	992.43831	-446.03402	222.62669	1050.34841	-509.52317	257.19486	1025.93608	-507.82901	-2.11130	1075.62256	-888.08465	29.16119	844.14101	-879.74202	75.85899	895.26638	-930.52545	133.93323	984.98828	-805.22065	209.01052	1037.60654	-738.94834	246.53830	1010.74086	-751.09573	-454.60129	771.06973	-552.74997	-455.54599	743.93567	-764.40731	-449.01009	765.15267	-556.50726	-447.11120	756.60831	-729.73436	
171	1.70000000	-152.39359	519.16645	-395.22538	-116.78769	390.62305	-401.27194	-290.08247	98.40924	-424.90129	-352.35523	63.39974	-476.65143	-166.86314	38.29956	-357.51378	-122.53019	66.85914	-423.76340	-165.17513	507.86567	-936.52216	-112.57406	398.52925	-929.37024	-286.84729	94.18024	-905.68154	-349.94612	67.99876	-849.23436	-153.48931	35.49214	-947.79418	-118.14151	63.34552	-882.55451	-145.57552	280.71713	-429.14390	-183.86613	396.87007	-362.80991	-206.55263	281.98914	-369.84718	-194.64435	420.66890	-961.07428	-208.83014	299.94256	-969.27733	-260.58808	745.44058	-459.34294	-172.63074	674.43076	-447.85679	-179.08103	641.45999	-388.39463	-319.75130	685.41899	-382.20294	-224.96562	611.71999	-375.67166	-306.57919	733.85410	-892.66946	-194.69597	658.05974	-918.86355	-371.80392	648.80387	-927.47653	-259.21071	570.73619	-947.43282	-347.55010	813.45505	-520.12940	-500.67757	927.32975	-613.81426	-345.87107	792.16779	-782.03204	-499.58037	922.53856	-711.69859	-172.97367	1284.94225	-654.46975	-90.05115	1201.24855	-475.31484	-75.96201	1209.15800	-811.91265	-60.17072	1159.71621	-627.43571	-64.28954	1156.35899	-668.29570	-23.31639	1082.24530	-402.74028	20.88816	849.02616	-431.55823	50.70779	896.01741	-355.04211	144.29770	1000.73436	-446.10766	220.31869	1058.57181	-509.83688	254.84325	1034.15624	-508.26838	-4.46200	1084.90996	-888.15267	25.84198	853.03105	-879.92824	72.72125	904.17064	-930.86946	130.96595	993.76297	-805.56860	206.20620	1046.05792	-739.15147	243.65299	1019.11507	-751.40561	-453.24081	776.89926	-552.74477	-454.24779	749.87865	-764.41689	-447.64912	770.96314	-556.51966	-445.70780	762.48505	-729.73098	
172	1.71000000	-153.70751	519.81057	-395.23969	-118.18392	391.26214	-401.14482	-290.29365	98.38735	-424.80255	-352.39748	63.34185	-476.63229	-167.00820	38.32041	-357.26249	-122.62299	67.01750	-423.52128	-165.84180	508.63391	-935.94051	-113.39332	399.12295	-928.65323	-286.93305	94.25279	-905.68685	-349.95749	68.00578	-849.27750	-153.51591	35.50593	-947.80088	-118.15385	63.36921	-882.56639	-146.45039	281.26237	-428.85843	-185.44831	397.27515	-362.83271	-207.55516	282.43061	-369.80688	-195.62119	421.21615	-960.48305	-209.50762	300.39064	-968.84423	-258.67333	747.88256	-458.58400	-171.93300	675.38473	-447.21728	-179.09628	642.42192	-387.65455	-319.25983	688.03104	-382.12453	-225.41554	613.07087	-375.60186	-304.22592	736.63354	-893.56950	-193.46354	658.95105	-918.73577	-370.67497	651.92597	-926.97355	-259.10782	572.32628	-946.73648	-345.96412	819.47702	-519.94220	-499.62966	932.96916	-613.71923	-344.34756	798.17231	-782.16936	-498.64208	928.25696	-711.69288	-175.22150	1293.77737	-653.85746	-91.83348	1210.39517	-474.64046	-77.82992	1218.73733	-811.10934	-61.51503	1169.51195	-626.99698	-65.61058	1166.18808	-667.80592	-25.21271	1090.71492	-402.36573	18.58137	857.68916	-432.00100	48.52039	904.27277	-355.01219	142.08394	1008.97988	-446.19370	218.01431	1066.75844	-510.03832	252.44058	1042.17575	-508.61364	-6.75351	1093.95515	-888.09347	22.54218	861.81424	-880.06636	69.57270	912.89439	-931.29209	127.99592	1002.36552	-805.94657	203.40448	1054.46622	-739.48474	240.79279	1027.32631	-751.59914	-451.65012	782.65390	-552.69411	-452.67150	755.63127	-764.36580	-445.97434	776.54015	-556.28518	-444.22678	768.19934	-729.71826	
173	1.72000000	-154.98585	520.60203	-395.09453	-119.53055	391.89916	-401.01508	-290.43321	98.39824	-424.64502	-352.41356	63.27464	-476.64163	-167.19266	38.38871	-356.95362	-122.73885	67.18990	-423.17687	-166.54332	509.25411	-935.07809	-114.25592	399.79613	-928.10561	-286.99742	94.31887	-905.70448	-350.00888	68.03612	-849.31380	-153.55402	35.52929	-947.86327	-118.16257	63.39761	-882.58426	-147.29417	281.82130	-428.62679	-186.98017	397.64115	-362.85867	-208.12424	282.37994	-370.27778	-196.58711	421.71342	-959.76951	-210.26859	300.92280	-968.45369	-256.90888	750.21488	-457.76645	-171.27603	676.45835	-446.33040	-179.17065	643.22171	-387.02577	-318.64622	690.66839	-382.03802	-225.82814	614.43241	-375.41097	-302.03794	739.04091	-893.38260	-192.22756	659.75334	-918.58711	-369.53415	654.92439	-926.18120	-259.05465	574.01813	-946.18349	-344.06899	825.02219	-520.02214	-498.52200	938.50608	-613.62206	-342.56243	804.30063	-782.66448	-497.68891	933.89616	-711.58301	-177.40488	1302.42722	-653.15993	-93.65781	1219.40796	-473.99036	-79.58806	1228.20851	-810.08411	-62.79058	1179.18313	-626.53887	-66.84173	1175.87429	-667.37233	-27.06799	1099.13037	-401.99265	16.54442	866.08441	-432.30032	46.42187	912.42179	-354.95586	139.86084	1017.22250	-446.22479	215.70571	1074.82532	-510.20964	250.04984	1050.15828	-508.84896	-9.01860	1102.79839	-888.00183	19.27027	870.50371	-880.38264	66.45159	921.47400	-931.65554	125.08658	1010.84636	-806.42253	200.58496	1062.82802	-739.87008	237.88682	1035.50440	-751.89063	-449.80588	788.03217	-552.95160	-450.92023	761.46956	-764.68020	-444.05246	782.02470	-556.31407	-442.57573	773.85154	-730.00096	
174	1.73000000	-156.35750	521.35374	-395.12565	-120.86641	392.58106	-400.81523	-290.63524	98.38824	-424.50440	-352.44592	63.20164	-476.65935	-167.37597	38.44341	-356.72591	-122.89765	67.42609	-422.75764	-167.17394	509.82884	-934.15010	-115.26607	400.19907	-927.47576	-287.06302	94.33368	-905.60346	-350.00684	68.05546	-849.36995	-153.61558	35.58010	-947.97024	-118.19287	63.44354	-882.61947	-148.22127	282.36170	-428.41084	-188.45931	398.12848	-362.80537	-209.04710	282.59283	-370.44793	-197.52432	422.14946	-958.90722	-211.03801	301.32174	-967.89618	-255.15346	752.35618	-457.06063	-170.62891	677.60849	-445.42602	-179.23045	643.92077	-386.52077	-317.95004	693.28572	-382.11535	-226.21806	615.76152	-375.29498	-299.75686	741.44434	-893.45438	-191.02266	660.41511	-918.15993	-368.39966	657.94221	-925.58989	-259.06356	575.63243	-945.48033	-341.63440	829.73651	-520.34498	-497.37984	944.10662	-613.58434	-340.81352	810.15278	-782.92401	-496.58373	939.42929	-711.48522	-179.56687	1310.95373	-652.56672	-95.51377	1228.28313	-473.29194	-81.37367	1237.59014	-809.47940	-64.07610	1188.70222	-626.02672	-68.02323	1185.44971	-666.99174	-28.84593	1107.39653	-401.56212	14.19686	874.30192	-432.42334	44.28146	920.44604	-354.95824	137.61941	1025.25753	-446.25815	213.35147	1082.77667	-510.38174	247.69143	1058.10204	-509.12978	-11.31025	1111.51691	-887.99380	16.04554	879.05786	-880.81745	63.40072	929.99416	-931.92021	122.16613	1019.18583	-806.81689	197.73610	1071.03659	-740.10154	234.87700	1043.69519	-752.31480	-447.86150	793.08916	-553.27895	-449.26798	767.15966	-765.08438	-442.06994	787.53446	-556.60265	-440.65844	779.24177	-730.18499	
